# xmcd CD database file
# Copyright (C) 1993-1998 Ti Kan
# 
# Track frame offsets:
#     183
#     14455
#     26048
#     40038
#     52418
#     63328
#     76288
#     88585
#     101508
#     115268
#     128168
#     140378
#     152640
#     165488
#     178620
#     189270
# 
# Disc length: 2663 seconds
# 
# Revision: 1
# Processed by: cddbd v1.4b41PL1 Copyright (c) Steve Scherf et al.
# Submitted via: DiscPlay 4.0.3
# 
DISCID=cc0a6510
DTITLE=Willie Mabon - The seventh son
DYEAR=1900
DGENRE=
TTITLE0=I don't know
TTITLE1=I'm mad
TTITLE2=Got to have it
TTITLE3=Beggar or bandit
TTITLE4=You're a fool
TTITLE5=Monday woman
TTITLE6=I'm tired
TTITLE7=Lonely blues
TTITLE8=Willie's blues
TTITLE9=Poison ivy
TTITLE10=He lied
TTITLE11=Someday you gotta pay
TTITLE12=The seventh son
TTITLE13=Knock on wood
TTITLE14=Why did happen to me
TTITLE15=I'm mad at you
EXTD=
EXTT0=
EXTT1=
EXTT2=
EXTT3=
EXTT4=
EXTT5=
EXTT6=
EXTT7=
EXTT8=
EXTT9=
EXTT10=
EXTT11=
EXTT12=
EXTT13=
EXTT14=
EXTT15=
PLAYORDER=
